<?xml version="1.0" encoding="UTF-8" standalone="no"?>
<!-- Created with Inkscape (http://www.inkscape.org/) -->

<svg
   xmlns:dc="http://purl.org/dc/elements/1.1/"
   xmlns:cc="http://creativecommons.org/ns#"
   xmlns:rdf="http://www.w3.org/1999/02/22-rdf-syntax-ns#"
   xmlns:svg="http://www.w3.org/2000/svg"
   xmlns="http://www.w3.org/2000/svg"
   xmlns:sodipodi="http://sodipodi.sourceforge.net/DTD/sodipodi-0.dtd"
   xmlns:inkscape="http://www.inkscape.org/namespaces/inkscape"
   width="210mm"
   height="297mm"
   viewBox="0 0 210 297"
   version="1.1"
   id="svg8"
   inkscape:version="0.92.3 (2405546, 2018-03-11)"
   sodipodi:docname="silueta.svg">
  <defs
     id="defs2" />
  <sodipodi:namedview
     id="base"
     pagecolor="#ffffff"
     bordercolor="#666666"
     borderopacity="1.0"
     inkscape:pageopacity="0.0"
     inkscape:pageshadow="2"
     inkscape:zoom="0.98994949"
     inkscape:cx="363.7099"
     inkscape:cy="346.48352"
     inkscape:document-units="mm"
     inkscape:current-layer="layer1"
     showgrid="false"
     inkscape:window-width="1920"
     inkscape:window-height="1015"
     inkscape:window-x="0"
     inkscape:window-y="0"
     inkscape:window-maximized="1"
     inkscape:snap-bbox="false"
     inkscape:snap-global="true"
     inkscape:bbox-paths="false" />
  <metadata
     id="metadata5">
    <rdf:RDF>
      <cc:Work
         rdf:about="">
        <dc:format>image/svg+xml</dc:format>
        <dc:type
           rdf:resource="http://purl.org/dc/dcmitype/StillImage" />
        <dc:title></dc:title>
      </cc:Work>
    </rdf:RDF>
  </metadata>
  <g
     inkscape:label="Capa 1"
     inkscape:groupmode="layer"
     id="layer1">
    <path
       id="path826"
       style="fill:none;stroke:#000000;stroke-width:0.26458332px;stroke-linecap:butt;stroke-linejoin:miter;stroke-opacity:1"
       d="m 134.57021,231.38533 -6.54811,13.0962 c 0,0 7.55036,-2.80633 10.08942,-2.47224 l -1.67043,9.02035 c 0,0 6.01357,1.46998 5.94675,0.80181 -0.0668,-0.66818 -2.6727,-10.28988 -4.94449,-12.82894 l 7.34992,-9.02035 z m -9.9558,-1.87089 -3.54132,2.87315 1.1359,0.73499 z m -8.21853,0.13364 c 0,0 -1.26953,-8.48581 -6.5481,-6.61492 -5.27858,1.87088 6.5481,6.61492 6.5481,6.61492 z m -17.840243,0.46772 2.138153,-1.87089 4.34313,0.86863 c 0,0 -3.4745,-1.00226 -5.81311,-3.60814 z m -34.611402,-15.96936 -4.009044,4.81085 10.289876,20.04522 4.009044,-9.02035 -8.218538,-12.82893 z M 47.15253,236.38206 c 0,0 -19.938245,24.56846 8.07924,2.4096 l -0.614212,-2.3151 -3.968749,2.22061 z m 5.622396,-8.40996 -1.417413,1.6064 2.645834,0.18898 z m -31.60826,41.15214 -1.88988,3.02382 c 0,0 1.146239,1.67641 1.88988,1.41742 7.05904,-2.45848 23.072344,-2.62074 32.316965,0.85043 l 0.152974,-1.11238 c -0.534054,-2.19609 -1.063839,-6.69978 0.697471,-11.45532 2.83482,-7.65402 5.480656,-11.0558 5.480656,-11.0558 l 4.063243,10.11086 5.811383,-6.42559 c 0,0 3.131011,4.22343 13.37091,3.77976 5.858322,0.21593 9.024179,4.44122 9.024179,4.44122 0,0 7.748515,-10.11087 22.347843,-12.94569 -2.44803,4.38401 -1.64455,11.29928 -1.64455,11.29928 l 6.01356,-0.0668 14.43256,-6.39826 -2.6727,5.99735 c 10.60169,0.80181 9.76961,-0.23901 31.80508,2.40543 l 3.80859,-0.0668 1.60361,-0.93544 1.1359,-1.5368 0.0668,-1.1359 -0.93545,-1.46998 -0.8018,-0.60136 -7.08265,-8.35217 2.53906,0.66818 2.20498,0.26727 h 2.53906 c 0,0 10.42351,-2.13816 10.55714,-14.16529 0.13364,-12.02713 -6.68174,-14.36574 -6.68174,-14.36574 l -1.00226,-0.66817 1.87089,-2.20497 -5.27857,-5.61266 c 0,0 -9.2208,8.61944 -30.00101,14.03165 3.0323,-4.50968 8.15172,-10.89124 8.15172,-10.89124 l -0.86862,-8.61944 -14.29892,5.01131 -4.40995,4.81085 c 0,0 -1.33656,-17.0913 -16.70434,-17.17207 -8.989654,-0.0472 -12.895757,5.61266 -12.895757,5.61266 0,0 -3.066886,-7.76228 -8.151722,-7.08264 -5.746295,0.86862 -13.029388,10.28987 -0.400905,22.91836 12.628486,12.62848 -3.474503,2.33861 -3.474503,2.33861 l -0.200451,3.40768 0.601356,0.33409 4.142676,-1.73725 -0.200451,6.5481 -8.218538,5.34539 2.271792,-7.01582 c 0,0 -14.03165,-26.92741 -8.285355,-40.49134 l -1.135896,-0.33408 -7.283096,4.54358 -0.935442,-0.46772 -1.202714,2.67269 -5.612659,1.73726 -0.267269,2.07133 -7.817635,0.33409 c 0,0 -2.672694,11.75986 -5.879928,14.83346 l 0.935442,0.46772 1.737251,0.46772 1.135896,-0.73499 1.135896,2.33861 c 0,0 -10.891234,2.60588 -17.105248,-5.41221 -6.214018,-8.01808 -6.882192,-16.70434 -6.882192,-16.70434 l -1.26953,-0.735 -10.089425,14.69983 0.467722,1.26953 13.163026,13.69756 1.336346,1.46998 4.209495,-0.66817 1.269531,-0.33409 4.009041,0.53454 0.467723,-0.60135 -2.405425,-6.48129 c 0,0 4.746576,1.57595 11.893494,1.80407 -1.121314,2.73222 -19.443859,16.23662 -27.662397,28.53102 -8.218538,12.2944 -3.703843,20.68759 0.987817,19.96549 z"
       inkscape:connector-curvature="0" />
  </g>
</svg>
